<svg width="81" height="81" viewBox="0 0 81 81" fill="none" xmlns="http://www.w3.org/2000/svg">
<path d="M40.3333 0C62.6088 0 80.6667 18.0578 80.6667 40.3333C80.6667 62.6088 62.6088 80.6667 40.3333 80.6667C18.0578 80.6667 0 62.6088 0 40.3333C0 18.0578 18.0578 0 40.3333 0ZM25.0384 32.6859C22.2263 32.6859 19.9401 34.9721 19.9401 37.7842V55.6283C19.9401 58.4403 22.2263 60.7266 25.0384 60.7266H42.8825C45.6945 60.7266 47.9808 58.4403 47.9808 55.6283V51.8045H44.1571V55.6283C44.1571 56.3293 43.5835 56.9029 42.8825 56.9029H25.0384C24.3374 56.9029 23.7638 56.3293 23.7638 55.6283V37.7842C23.7638 37.0832 24.3374 36.5096 25.0384 36.5096H28.8621V32.6859H25.0384ZM37.7842 19.9401C34.9721 19.9401 32.6859 22.2263 32.6859 25.0384V42.8825C32.6859 45.6945 34.9721 47.9808 37.7842 47.9808H55.6283C58.4403 47.9808 60.7266 45.6945 60.7266 42.8825V25.0384C60.7266 22.2263 58.4403 19.9401 55.6283 19.9401H37.7842ZM55.6283 23.7638C56.3293 23.7638 56.9029 24.3374 56.9029 25.0384V42.8825C56.9029 43.5835 56.3293 44.1571 55.6283 44.1571H37.7842C37.0832 44.1571 36.5096 43.5835 36.5096 42.8825V25.0384C36.5096 24.3374 37.0832 23.7638 37.7842 23.7638H55.6283Z" fill="white"/>
</svg>
