<svg width="668" height="126" viewBox="0 0 668 126" fill="none" xmlns="http://www.w3.org/2000/svg">
<g clip-path="url(#clip0_1215_4707)">
<rect width="668" height="126" fill="#D38989"/>
<ellipse cx="136.074" cy="-54.7376" rx="569.037" ry="184.869" fill="#E58B8B"/>
<ellipse cx="24.7406" cy="-15.4918" rx="313.383" ry="141.492" fill="#EF9494"/>
<path d="M325.773 33.1178C326.305 31.5323 327.778 30.4673 329.445 30.4673H343.205C344.872 30.4673 346.346 31.5323 346.878 33.1178L347.916 36.2767H359.514C361.652 36.2767 363.379 38.0074 363.379 40.1497C363.379 42.2919 361.652 44.0226 359.514 44.0226H313.125C310.987 44.0226 309.259 42.2919 309.259 40.1497C309.259 38.0074 310.987 36.2767 313.125 36.2767H324.722L325.773 33.1178ZM313.125 49.832H359.514V86.6251C359.514 90.8974 356.047 94.371 351.782 94.371H320.856C316.592 94.371 313.125 90.8974 313.125 86.6251V49.832ZM323.756 57.5779C322.149 57.5779 320.856 58.873 320.856 60.4827V83.7204C320.856 85.3301 322.149 86.6251 323.756 86.6251C325.362 86.6251 326.655 85.3301 326.655 83.7204V60.4827C326.655 58.873 325.362 57.5779 323.756 57.5779ZM336.319 57.5779C334.713 57.5779 333.42 58.873 333.42 60.4827V83.7204C333.42 85.3301 334.713 86.6251 336.319 86.6251C337.926 86.6251 339.219 85.3301 339.219 83.7204V60.4827C339.219 58.873 337.926 57.5779 336.319 57.5779ZM348.883 57.5779C347.276 57.5779 345.984 58.873 345.984 60.4827V83.7204C345.984 85.3301 347.276 86.6251 348.883 86.6251C350.49 86.6251 351.782 85.3301 351.782 83.7204V60.4827C351.782 58.873 350.49 57.5779 348.883 57.5779Z" fill="white"/>
<path d="M337.092 17.0247C362.435 17.0247 382.981 37.6078 382.981 63.0002C382.981 88.3926 362.435 108.976 337.092 108.976C311.75 108.976 291.204 88.3925 291.204 63.0002C291.204 37.6079 311.75 17.0248 337.092 17.0247Z" stroke="white"/>
</g>
<defs>
<clipPath id="clip0_1215_4707">
<path d="M0 10C0 4.47715 4.47715 0 10 0H658C663.523 0 668 4.47715 668 10V126H0V10Z" fill="white"/>
</clipPath>
</defs>
</svg>
