<svg width="324" height="61" viewBox="0 0 324 61" fill="none" xmlns="http://www.w3.org/2000/svg">
<g clip-path="url(#clip0_1215_4707)">
<rect width="324" height="61" fill="#D38989"/>
<ellipse cx="66" cy="-26.5" rx="276" ry="89.5" fill="#E58B8B"/>
<ellipse cx="12" cy="-7.5" rx="152" ry="68.5" fill="#EF9494"/>
<path d="M158.01 16.0332C158.268 15.2656 158.982 14.75 159.791 14.75H166.465C167.273 14.75 167.988 15.2656 168.246 16.0332L168.75 17.5625H174.375C175.412 17.5625 176.25 18.4004 176.25 19.4375C176.25 20.4746 175.412 21.3125 174.375 21.3125H151.875C150.838 21.3125 150 20.4746 150 19.4375C150 18.4004 150.838 17.5625 151.875 17.5625H157.5L158.01 16.0332ZM151.875 24.125H174.375V41.9375C174.375 44.0059 172.693 45.6875 170.625 45.6875H155.625C153.557 45.6875 151.875 44.0059 151.875 41.9375V24.125ZM157.031 27.875C156.252 27.875 155.625 28.502 155.625 29.2812V40.5312C155.625 41.3105 156.252 41.9375 157.031 41.9375C157.811 41.9375 158.437 41.3105 158.437 40.5312V29.2812C158.437 28.502 157.811 27.875 157.031 27.875ZM163.125 27.875C162.346 27.875 161.719 28.502 161.719 29.2812V40.5312C161.719 41.3105 162.346 41.9375 163.125 41.9375C163.904 41.9375 164.531 41.3105 164.531 40.5312V29.2812C164.531 28.502 163.904 27.875 163.125 27.875ZM169.219 27.875C168.439 27.875 167.812 28.502 167.812 29.2812V40.5312C167.812 41.3105 168.439 41.9375 169.219 41.9375C169.998 41.9375 170.625 41.3105 170.625 40.5312V29.2812C170.625 28.502 169.998 27.875 169.219 27.875Z" fill="white"/>
<circle cx="163.5" cy="30.5" r="22" stroke="white"/>
</g>
<defs>
<clipPath id="clip0_1215_4707">
<path d="M0 10C0 4.47715 4.47715 0 10 0H314C319.523 0 324 4.47715 324 10V61H0V10Z" fill="white"/>
</clipPath>
</defs>
</svg>
