<svg width="320" height="320" viewBox="0 0 320 320" fill="none" xmlns="http://www.w3.org/2000/svg">
<rect x="14" y="159.664" width="206" height="206" rx="45" transform="rotate(-45 14 159.664)" fill="#FFB564"/>
<path d="M163.892 218.224C169.529 218.224 173.096 217.192 174.592 215.129C176.202 213.065 177.008 209.568 177.008 204.638V171.273H165.963V167.489H215.664V171.273H208.934V219.772H206.345C204.274 216.906 201.34 215.473 197.544 215.473C195.933 215.473 191.101 216.505 183.048 218.568C175.109 220.632 168.321 221.664 162.684 221.664C143.931 221.664 129.377 216.619 119.023 206.53C108.784 196.44 103.664 181.305 103.664 161.126C103.664 140.832 109.014 125.181 119.713 114.174C130.528 103.168 145.024 97.6641 163.202 97.6641C170.22 97.6641 177.238 98.5813 184.256 100.416C191.389 102.136 195.531 102.996 196.681 102.996C197.831 102.996 198.694 102.766 199.27 102.308C199.845 101.734 200.478 100.817 201.168 99.5559H203.066L204.447 136.876H201.34C195.703 125.755 190.008 117.041 184.256 110.735C178.618 104.314 172.291 101.104 165.273 101.104C147.67 101.104 138.869 118.245 138.869 152.527V166.113C138.869 183.312 140.997 196.325 145.254 205.154C149.626 213.867 155.839 218.224 163.892 218.224Z" fill="white"/>
</svg>
