<svg width="324" height="61" viewBox="0 0 324 61" fill="none" xmlns="http://www.w3.org/2000/svg">
<g clip-path="url(#clip0_1049_1213)">
<rect width="324" height="61" fill="#D38989"/>
<ellipse cx="66" cy="-26.5" rx="276" ry="89.5" fill="#E58B8B"/>
<ellipse cx="12" cy="-7.5" rx="152" ry="68.5" fill="#EF9494"/>
<path d="M161.5 9C173.374 9 183 18.6259 183 30.5C183 42.3741 173.374 52 161.5 52C149.626 52 140 42.3741 140 30.5C140 18.6259 149.626 9 161.5 9ZM153.347 26.4235C151.848 26.4235 150.629 27.6422 150.629 29.1412V38.6531C150.629 40.1521 151.848 41.3708 153.347 41.3708H162.859C164.358 41.3708 165.577 40.1521 165.577 38.6531V36.6148H163.538V38.6531C163.538 39.0268 163.233 39.3325 162.859 39.3325H153.347C152.973 39.3325 152.667 39.0268 152.667 38.6531V29.1412C152.667 28.7675 152.973 28.4617 153.347 28.4617H155.385V26.4235H153.347ZM160.141 19.6292C158.642 19.6292 157.423 20.8479 157.423 22.3469V31.8588C157.423 33.3578 158.642 34.5765 160.141 34.5765H169.653C171.152 34.5765 172.371 33.3578 172.371 31.8588V22.3469C172.371 20.8479 171.152 19.6292 169.653 19.6292H160.141ZM169.653 21.6675C170.027 21.6675 170.333 21.9732 170.333 22.3469V31.8588C170.333 32.2325 170.027 32.5383 169.653 32.5383H160.141C159.767 32.5383 159.462 32.2325 159.462 31.8588V22.3469C159.462 21.9732 159.767 21.6675 160.141 21.6675H169.653Z" fill="white"/>
</g>
<defs>
<clipPath id="clip0_1049_1213">
<rect width="324" height="61" fill="white"/>
</clipPath>
</defs>
</svg>
