<svg width="668" height="126" viewBox="0 0 668 126" fill="none" xmlns="http://www.w3.org/2000/svg">
<g clip-path="url(#clip0_1224_4225)">
<rect width="668" height="125.754" fill="#D38989"/>
<ellipse cx="136.074" cy="-54.6307" rx="569.037" ry="184.508" fill="#E58B8B"/>
<ellipse cx="24.7406" cy="-15.4616" rx="313.383" ry="141.215" fill="#EF9494"/>
<path d="M332.969 18.554C357.45 18.554 377.296 38.3981 377.296 62.877C377.296 87.356 357.45 107.2 332.969 107.2C308.488 107.2 288.642 87.356 288.642 62.877C288.642 38.3981 308.488 18.554 332.969 18.554ZM316.16 54.4731C313.069 54.4731 310.557 56.9855 310.557 60.0757V79.6849C310.557 82.7751 313.069 85.2876 316.16 85.2876H335.771C338.861 85.2876 341.374 82.7751 341.374 79.6849V75.483H337.172V79.6849C337.172 80.4553 336.541 81.0856 335.771 81.0856H316.16C315.389 81.0856 314.759 80.4553 314.759 79.6849V60.0757C314.759 59.3054 315.389 58.6751 316.16 58.6751H320.362V54.4731H316.16ZM330.168 40.4665C327.077 40.4665 324.565 42.9789 324.565 46.0691V65.6784C324.565 68.7686 327.077 71.281 330.168 71.281H349.779C352.869 71.281 355.382 68.7686 355.382 65.6784V46.0691C355.382 42.9789 352.869 40.4665 349.779 40.4665H330.168ZM349.779 44.6685C350.549 44.6685 351.179 45.2988 351.179 46.0691V65.6784C351.179 66.4487 350.549 67.079 349.779 67.079H330.168C329.397 67.079 328.767 66.4487 328.767 65.6784V46.0691C328.767 45.2988 329.397 44.6685 330.168 44.6685H349.779Z" fill="white"/>
</g>
<defs>
<clipPath id="clip0_1224_4225">
<rect width="668" height="125.754" fill="white"/>
</clipPath>
</defs>
</svg>
