<svg width="21" height="21" viewBox="0 0 21 21" fill="none" xmlns="http://www.w3.org/2000/svg">
<path d="M18.9 3.67502C18.9 3.3108 18.7129 2.97283 18.4012 2.78252C18.0895 2.5922 17.7056 2.57252 17.3808 2.73658L13.5679 4.64298L7.68138 2.67752C7.4156 2.58892 7.13013 2.60861 6.88076 2.7333L2.68076 4.8333C2.3231 5.01377 2.09998 5.37798 2.09998 5.77502V17.325C2.09998 17.6892 2.28701 18.0272 2.59873 18.2175C2.91044 18.4078 3.29435 18.4275 3.61919 18.2635L7.42873 16.357L13.1151 18.2536C12.974 18.0436 12.8362 17.8238 12.7017 17.6006C12.3408 17.0002 11.9831 16.3111 11.7173 15.5728L8.39669 14.467V5.13189L12.5967 6.53299V9.79127C13.6139 8.61658 15.1233 7.87502 16.7967 7.87502C17.5383 7.87502 18.247 8.01939 18.8967 8.28517L18.9 3.67502ZM16.8 9.45002C14.6245 9.45002 12.8625 11.1825 12.8625 13.3186C12.8625 15.5794 14.9658 18.2536 16.0978 19.53C16.4784 19.9566 17.1248 19.9566 17.5054 19.53C18.6375 18.2536 20.7408 15.5794 20.7408 13.3186C20.7408 11.1825 18.9787 9.45002 16.8033 9.45002H16.8ZM15.4875 13.3875C15.4875 12.6624 16.0748 12.075 16.8 12.075C17.5251 12.075 18.1125 12.6624 18.1125 13.3875C18.1125 14.1127 17.5251 14.7 16.8 14.7C16.0748 14.7 15.4875 14.1127 15.4875 13.3875Z" fill="white"/>
</svg>
