<svg width="21" height="21" viewBox="0 0 21 21" fill="none" xmlns="http://www.w3.org/2000/svg">
<path d="M12.3375 1.04999C16.5408 1.04999 19.95 4.45921 19.95 8.66249C19.95 9.09889 19.5989 9.44999 19.1625 9.44999C18.7261 9.44999 18.375 9.09889 18.375 8.66249C18.375 5.32874 15.6712 2.62499 12.3375 2.62499C11.9011 2.62499 11.55 2.27389 11.55 1.83749C11.55 1.40108 11.9011 1.04999 12.3375 1.04999ZM12.6 7.34999C13.1808 7.34999 13.65 7.81921 13.65 8.39999C13.65 8.98077 13.1808 9.44999 12.6 9.44999C12.0192 9.44999 11.55 8.98077 11.55 8.39999C11.55 7.81921 12.0192 7.34999 12.6 7.34999ZM11.55 4.98749C11.55 4.55108 11.9011 4.19999 12.3375 4.19999C14.8017 4.19999 16.8 6.19827 16.8 8.66249C16.8 9.09889 16.4489 9.44999 16.0125 9.44999C15.5761 9.44999 15.225 9.09889 15.225 8.66249C15.225 7.0678 13.9322 5.77499 12.3375 5.77499C11.9011 5.77499 11.55 5.42389 11.55 4.98749ZM5.77828 2.14593C6.42468 1.96874 7.10062 2.30014 7.35656 2.91702L8.68547 6.10968C8.91187 6.65108 8.75437 7.2778 8.29828 7.65186L6.85125 8.83639C7.91765 11.1858 9.77156 13.102 12.0783 14.2472L13.3448 12.6984C13.7156 12.2423 14.3423 12.0881 14.887 12.3112L18.0797 13.6434C18.6966 13.8994 19.028 14.5753 18.8508 15.2217L18.8016 15.4022C18.2241 17.5251 16.1733 19.3364 13.6697 18.8081C7.9275 17.5908 3.40922 13.0725 2.19187 7.3303C1.66359 4.82671 3.47484 2.77593 5.59453 2.19514L5.775 2.14593H5.77828Z" fill="white"/>
</svg>
