<svg width="42" height="19" viewBox="0 0 42 19" fill="none" xmlns="http://www.w3.org/2000/svg">
<rect width="42" height="19" rx="9.5" fill="#F74040"/>
<path d="M13.168 7.125H14.565V12.889C14.565 13.0797 14.5797 13.2227 14.609 13.318C14.6457 13.406 14.7117 13.4647 14.807 13.494C14.9023 13.5233 15.0453 13.538 15.236 13.538C15.302 13.538 15.4083 13.538 15.555 13.538C15.709 13.538 15.874 13.538 16.05 13.538C16.226 13.538 16.391 13.538 16.545 13.538C16.7063 13.538 16.8237 13.538 16.897 13.538C17.0877 13.538 17.2307 13.4903 17.326 13.395C17.4287 13.2997 17.4983 13.1163 17.535 12.845C17.579 12.5737 17.6157 12.1777 17.645 11.657C17.755 11.7303 17.887 11.8073 18.041 11.888C18.195 11.9613 18.349 12.0273 18.503 12.086C18.6643 12.1447 18.811 12.1887 18.943 12.218C18.8843 12.8853 18.789 13.4097 18.657 13.791C18.5323 14.1723 18.3417 14.4437 18.085 14.605C17.8283 14.7663 17.4727 14.847 17.018 14.847C16.952 14.847 16.8493 14.847 16.71 14.847C16.578 14.847 16.4313 14.847 16.27 14.847C16.1087 14.847 15.9473 14.847 15.786 14.847C15.6247 14.847 15.478 14.847 15.346 14.847C15.2213 14.847 15.1297 14.847 15.071 14.847C14.5723 14.847 14.1837 14.7883 13.905 14.671C13.6337 14.561 13.443 14.363 13.333 14.077C13.223 13.791 13.168 13.395 13.168 12.889V7.125ZM13.3 5.596L14.147 4.639C14.4477 4.82967 14.7593 5.03867 15.082 5.266C15.412 5.49333 15.7273 5.717 16.028 5.937C16.3287 6.157 16.5853 6.35133 16.798 6.52L15.918 7.598C15.7127 7.422 15.4597 7.21667 15.159 6.982C14.8583 6.74733 14.543 6.509 14.213 6.267C13.8903 6.01767 13.586 5.794 13.3 5.596ZM11.397 7.631L12.662 7.95C12.5887 8.38267 12.497 8.83367 12.387 9.303C12.277 9.77233 12.1523 10.2197 12.013 10.645C11.8737 11.0703 11.7123 11.4407 11.529 11.756L10.231 11.283C10.4217 10.9603 10.5903 10.601 10.737 10.205C10.891 9.80167 11.023 9.38 11.133 8.94C11.2503 8.5 11.3383 8.06367 11.397 7.631ZM17.887 8.94L19.075 8.379C19.3097 8.71633 19.537 9.083 19.757 9.479C19.977 9.875 20.1713 10.2637 20.34 10.645C20.516 11.019 20.6517 11.36 20.747 11.668L19.471 12.317C19.3903 12.009 19.2657 11.6607 19.097 11.272C18.9357 10.8833 18.7487 10.4837 18.536 10.073C18.3233 9.66233 18.107 9.28467 17.887 8.94ZM18.415 5.299L19.746 5.827C19.2987 6.67767 18.7817 7.51367 18.195 8.335C17.6157 9.15633 16.9667 9.941 16.248 10.689C15.5293 11.437 14.741 12.13 13.883 12.768C13.0323 13.406 12.1157 13.967 11.133 14.451C11.067 14.3483 10.9827 14.231 10.88 14.099C10.7847 13.9743 10.682 13.8497 10.572 13.725C10.462 13.593 10.3593 13.4867 10.264 13.406C11.2027 12.9807 12.0827 12.4673 12.904 11.866C13.7327 11.2573 14.4953 10.5937 15.192 9.875C15.8887 9.15633 16.5083 8.40833 17.051 7.631C17.5937 6.84633 18.0483 6.069 18.415 5.299ZM23.882 4.837L25.125 5.365C24.8757 5.70967 24.5897 6.03967 24.267 6.355C23.9443 6.663 23.6107 6.95267 23.266 7.224C22.9213 7.49533 22.5767 7.741 22.232 7.961C22.122 7.807 21.9753 7.642 21.792 7.466C21.616 7.28267 21.44 7.12867 21.264 7.004C21.572 6.83533 21.891 6.63733 22.221 6.41C22.551 6.17533 22.8627 5.92233 23.156 5.651C23.4493 5.37967 23.6913 5.10833 23.882 4.837ZM24.124 7.928L25.345 8.456C25.0883 8.808 24.7913 9.15267 24.454 9.49C24.124 9.82 23.7793 10.128 23.42 10.414C23.068 10.7 22.7197 10.9567 22.375 11.184C22.265 11.0227 22.1183 10.8467 21.935 10.656C21.759 10.4653 21.583 10.3003 21.407 10.161C21.7297 9.99233 22.0597 9.79067 22.397 9.556C22.7417 9.314 23.0643 9.05367 23.365 8.775C23.673 8.49633 23.926 8.214 24.124 7.928ZM24.366 10.997L25.62 11.481C25.3487 11.943 25.0333 12.3757 24.674 12.779C24.3147 13.1823 23.926 13.5527 23.508 13.89C23.0973 14.2273 22.6647 14.5243 22.21 14.781C22.1147 14.6123 21.979 14.4253 21.803 14.22C21.627 14.0147 21.451 13.8423 21.275 13.703C21.6783 13.5123 22.0743 13.2813 22.463 13.01C22.859 12.7313 23.222 12.4233 23.552 12.086C23.882 11.7413 24.1533 11.3783 24.366 10.997ZM25.312 5.123H31.56V6.234H25.312V5.123ZM26.995 9.479V10.183H29.899V9.479H26.995ZM26.995 11.085V11.789H29.899V11.085H26.995ZM26.995 7.884V8.577H29.899V7.884H26.995ZM25.763 6.916H31.186V12.757H25.763V6.916ZM27.721 5.706L29.261 5.893C29.151 6.23033 29.0337 6.564 28.909 6.894C28.7843 7.224 28.6743 7.50633 28.579 7.741L27.402 7.532C27.468 7.26067 27.5303 6.95633 27.589 6.619C27.655 6.28167 27.699 5.97733 27.721 5.706ZM26.995 12.779L28.062 13.527C27.82 13.7103 27.5413 13.8937 27.226 14.077C26.9107 14.2603 26.5807 14.429 26.236 14.583C25.8913 14.737 25.5577 14.869 25.235 14.979C25.147 14.847 25.0223 14.693 24.861 14.517C24.707 14.341 24.564 14.1907 24.432 14.066C24.7327 13.9707 25.0443 13.8533 25.367 13.714C25.697 13.5673 26.005 13.4133 26.291 13.252C26.577 13.0833 26.8117 12.9257 26.995 12.779ZM28.667 13.538L29.646 12.834C29.8807 12.9587 30.1337 13.1017 30.405 13.263C30.6837 13.4243 30.9513 13.5893 31.208 13.758C31.4647 13.9267 31.6773 14.0807 31.846 14.22L30.801 15.001C30.647 14.8617 30.449 14.704 30.207 14.528C29.965 14.3593 29.7083 14.187 29.437 14.011C29.1657 13.835 28.909 13.6773 28.667 13.538Z" fill="white"/>
</svg>
