<svg width="33" height="15" viewBox="0 0 33 15" fill="none" xmlns="http://www.w3.org/2000/svg">
<rect width="33" height="15" rx="7.5" fill="#F74040"/>
<path d="M11.842 6.418H12.316V9.64C12.316 9.732 12.326 9.804 12.346 9.856C12.366 9.904 12.406 9.938 12.466 9.958C12.526 9.974 12.612 9.982 12.724 9.982C12.764 9.982 12.836 9.982 12.94 9.982C13.044 9.982 13.158 9.982 13.282 9.982C13.41 9.982 13.528 9.982 13.636 9.982C13.748 9.982 13.83 9.982 13.882 9.982C14.002 9.982 14.09 9.952 14.146 9.892C14.206 9.832 14.248 9.72 14.272 9.556C14.3 9.388 14.32 9.144 14.332 8.824C14.372 8.852 14.418 8.88 14.47 8.908C14.522 8.936 14.574 8.96 14.626 8.98C14.682 9 14.732 9.016 14.776 9.028C14.752 9.388 14.714 9.67 14.662 9.874C14.61 10.078 14.526 10.22 14.41 10.3C14.294 10.384 14.126 10.426 13.906 10.426C13.878 10.426 13.822 10.426 13.738 10.426C13.654 10.426 13.558 10.426 13.45 10.426C13.346 10.426 13.24 10.426 13.132 10.426C13.028 10.426 12.934 10.426 12.85 10.426C12.77 10.426 12.716 10.426 12.688 10.426C12.472 10.426 12.302 10.404 12.178 10.36C12.054 10.316 11.966 10.236 11.914 10.12C11.866 10.004 11.842 9.842 11.842 9.634V6.418ZM11.86 5.296L12.154 4.978C12.322 5.086 12.502 5.21 12.694 5.35C12.886 5.486 13.068 5.62 13.24 5.752C13.412 5.88 13.556 5.992 13.672 6.088L13.372 6.448C13.252 6.344 13.106 6.226 12.934 6.094C12.766 5.958 12.586 5.82 12.394 5.68C12.206 5.536 12.028 5.408 11.86 5.296ZM10.882 6.772L11.308 6.886C11.264 7.106 11.21 7.342 11.146 7.594C11.082 7.846 11.006 8.09 10.918 8.326C10.83 8.558 10.73 8.762 10.618 8.938L10.186 8.764C10.302 8.592 10.404 8.394 10.492 8.17C10.584 7.942 10.662 7.706 10.726 7.462C10.794 7.218 10.846 6.988 10.882 6.772ZM14.434 7.162L14.836 6.982C14.972 7.178 15.106 7.392 15.238 7.624C15.37 7.852 15.486 8.078 15.586 8.302C15.69 8.522 15.77 8.72 15.826 8.896L15.394 9.106C15.342 8.926 15.266 8.724 15.166 8.5C15.066 8.276 14.952 8.048 14.824 7.816C14.696 7.58 14.566 7.362 14.434 7.162ZM14.746 5.314L15.196 5.5C14.948 5.968 14.664 6.424 14.344 6.868C14.024 7.312 13.668 7.734 13.276 8.134C12.884 8.53 12.454 8.898 11.986 9.238C11.522 9.574 11.022 9.87 10.486 10.126C10.466 10.09 10.438 10.05 10.402 10.006C10.37 9.962 10.334 9.92 10.294 9.88C10.258 9.836 10.224 9.798 10.192 9.766C10.712 9.534 11.2 9.256 11.656 8.932C12.112 8.604 12.534 8.246 12.922 7.858C13.31 7.466 13.656 7.056 13.96 6.628C14.268 6.196 14.53 5.758 14.746 5.314ZM17.746 5.062L18.172 5.242C18.032 5.406 17.872 5.568 17.692 5.728C17.512 5.888 17.324 6.038 17.128 6.178C16.936 6.314 16.75 6.434 16.57 6.538C16.53 6.49 16.478 6.436 16.414 6.376C16.354 6.312 16.294 6.26 16.234 6.22C16.406 6.128 16.586 6.02 16.774 5.896C16.962 5.768 17.142 5.632 17.314 5.488C17.486 5.344 17.63 5.202 17.746 5.062ZM17.854 6.748L18.268 6.922C18.136 7.102 17.978 7.278 17.794 7.45C17.614 7.622 17.424 7.784 17.224 7.936C17.028 8.084 16.834 8.212 16.642 8.32C16.602 8.268 16.552 8.21 16.492 8.146C16.432 8.078 16.372 8.022 16.312 7.978C16.496 7.882 16.684 7.768 16.876 7.636C17.068 7.504 17.25 7.362 17.422 7.21C17.598 7.058 17.742 6.904 17.854 6.748ZM17.986 8.428L18.406 8.59C18.266 8.83 18.098 9.06 17.902 9.28C17.706 9.496 17.492 9.696 17.26 9.88C17.028 10.06 16.788 10.216 16.54 10.348C16.504 10.292 16.454 10.228 16.39 10.156C16.33 10.088 16.27 10.03 16.21 9.982C16.45 9.874 16.68 9.74 16.9 9.58C17.124 9.416 17.33 9.236 17.518 9.04C17.71 8.844 17.866 8.64 17.986 8.428ZM18.346 5.254H21.724V5.644H18.346V5.254ZM19.054 7.456V8.044H21.07V7.456H19.054ZM19.054 8.374V8.968H21.07V8.374H19.054ZM19.054 6.55V7.126H21.07V6.55H19.054ZM18.628 6.196H21.514V9.316H18.628V6.196ZM19.798 5.434L20.308 5.506C20.26 5.678 20.206 5.852 20.146 6.028C20.09 6.204 20.034 6.356 19.978 6.484L19.576 6.4C19.616 6.264 19.656 6.106 19.696 5.926C19.74 5.742 19.774 5.578 19.798 5.434ZM19.3 9.448L19.69 9.694C19.562 9.794 19.412 9.894 19.24 9.994C19.068 10.094 18.89 10.186 18.706 10.27C18.522 10.354 18.34 10.426 18.16 10.486C18.128 10.438 18.084 10.382 18.028 10.318C17.972 10.258 17.922 10.208 17.878 10.168C18.05 10.108 18.226 10.04 18.406 9.964C18.59 9.884 18.76 9.8 18.916 9.712C19.076 9.62 19.204 9.532 19.3 9.448ZM20.314 9.712L20.656 9.466C20.792 9.534 20.934 9.612 21.082 9.7C21.234 9.788 21.38 9.878 21.52 9.97C21.66 10.062 21.776 10.146 21.868 10.222L21.508 10.492C21.424 10.416 21.314 10.332 21.178 10.24C21.046 10.148 20.904 10.056 20.752 9.964C20.6 9.868 20.454 9.784 20.314 9.712Z" fill="white"/>
</svg>
