<svg width="81" height="21" viewBox="0 0 81 21" fill="none" xmlns="http://www.w3.org/2000/svg">
<rect width="81" height="21" rx="10.5" fill="#F74040"/>
<path d="M31.298 7.642H32.404V15.16C32.404 15.3747 32.4273 15.5427 32.474 15.664C32.5207 15.776 32.614 15.8553 32.754 15.902C32.894 15.9393 33.0947 15.958 33.356 15.958C33.4493 15.958 33.6173 15.958 33.86 15.958C34.1027 15.958 34.3687 15.958 34.658 15.958C34.9567 15.958 35.232 15.958 35.484 15.958C35.7453 15.958 35.9367 15.958 36.058 15.958C36.338 15.958 36.5433 15.888 36.674 15.748C36.814 15.608 36.912 15.3467 36.968 14.964C37.0333 14.572 37.08 14.0027 37.108 13.256C37.2013 13.3213 37.3087 13.3867 37.43 13.452C37.5513 13.5173 37.6727 13.5733 37.794 13.62C37.9247 13.6667 38.0413 13.704 38.144 13.732C38.088 14.572 37.9993 15.23 37.878 15.706C37.7567 16.182 37.5607 16.5133 37.29 16.7C37.0193 16.896 36.6273 16.994 36.114 16.994C36.0487 16.994 35.918 16.994 35.722 16.994C35.526 16.994 35.302 16.994 35.05 16.994C34.8073 16.994 34.56 16.994 34.308 16.994C34.0653 16.994 33.846 16.994 33.65 16.994C33.4633 16.994 33.3373 16.994 33.272 16.994C32.768 16.994 32.3713 16.9427 32.082 16.84C31.7927 16.7373 31.5873 16.5507 31.466 16.28C31.354 16.0093 31.298 15.6313 31.298 15.146V7.642ZM31.34 5.024L32.026 4.282C32.418 4.534 32.838 4.82333 33.286 5.15C33.734 5.46733 34.1587 5.78 34.56 6.088C34.9613 6.38667 35.2973 6.648 35.568 6.872L34.868 7.712C34.588 7.46933 34.2473 7.194 33.846 6.886C33.454 6.56867 33.034 6.24667 32.586 5.92C32.1473 5.584 31.732 5.28533 31.34 5.024ZM29.058 8.468L30.052 8.734C29.9493 9.24733 29.8233 9.798 29.674 10.386C29.5247 10.974 29.3473 11.5433 29.142 12.094C28.9367 12.6353 28.7033 13.1113 28.442 13.522L27.434 13.116C27.7047 12.7147 27.9427 12.2527 28.148 11.73C28.3627 11.198 28.5447 10.6473 28.694 10.078C28.8527 9.50867 28.974 8.972 29.058 8.468ZM37.346 9.378L38.284 8.958C38.6013 9.41533 38.914 9.91467 39.222 10.456C39.53 10.988 39.8007 11.5153 40.034 12.038C40.2767 12.5513 40.4633 13.0133 40.594 13.424L39.586 13.914C39.4647 13.494 39.2873 13.0227 39.054 12.5C38.8207 11.9773 38.5547 11.4453 38.256 10.904C37.9573 10.3533 37.654 9.84467 37.346 9.378ZM38.074 5.066L39.124 5.5C38.5453 6.592 37.8827 7.656 37.136 8.692C36.3893 9.728 35.5587 10.7127 34.644 11.646C33.7293 12.57 32.726 13.4287 31.634 14.222C30.5513 15.006 29.3847 15.6967 28.134 16.294C28.0873 16.21 28.022 16.1167 27.938 16.014C27.8633 15.9113 27.7793 15.8133 27.686 15.72C27.602 15.6173 27.5227 15.5287 27.448 15.454C28.6613 14.9127 29.8 14.264 30.864 13.508C31.928 12.7427 32.9127 11.9073 33.818 11.002C34.7233 10.0873 35.5307 9.13067 36.24 8.132C36.9587 7.124 37.57 6.102 38.074 5.066ZM45.074 4.478L46.068 4.898C45.7413 5.28067 45.368 5.65867 44.948 6.032C44.528 6.40533 44.0893 6.75533 43.632 7.082C43.184 7.39933 42.75 7.67933 42.33 7.922C42.2367 7.81 42.1153 7.684 41.966 7.544C41.826 7.39467 41.686 7.27333 41.546 7.18C41.9473 6.96533 42.3673 6.71333 42.806 6.424C43.2447 6.12533 43.6647 5.808 44.066 5.472C44.4673 5.136 44.8033 4.80467 45.074 4.478ZM45.326 8.412L46.292 8.818C45.984 9.238 45.6153 9.64867 45.186 10.05C44.766 10.4513 44.3227 10.8293 43.856 11.184C43.3987 11.5293 42.946 11.828 42.498 12.08C42.4047 11.9587 42.288 11.8233 42.148 11.674C42.008 11.5153 41.868 11.3847 41.728 11.282C42.1573 11.058 42.596 10.792 43.044 10.484C43.492 10.176 43.9167 9.84467 44.318 9.49C44.7287 9.13533 45.0647 8.776 45.326 8.412ZM45.634 12.332L46.614 12.71C46.2873 13.27 45.8953 13.8067 45.438 14.32C44.9807 14.824 44.4813 15.2907 43.94 15.72C43.3987 16.14 42.8387 16.504 42.26 16.812C42.176 16.6813 42.0593 16.532 41.91 16.364C41.77 16.2053 41.63 16.07 41.49 15.958C42.05 15.706 42.5867 15.3933 43.1 15.02C43.6227 14.6373 44.1033 14.2173 44.542 13.76C44.99 13.3027 45.354 12.8267 45.634 12.332ZM46.474 4.926H54.356V5.836H46.474V4.926ZM48.126 10.064V11.436H52.83V10.064H48.126ZM48.126 12.206V13.592H52.83V12.206H48.126ZM48.126 7.95V9.294H52.83V7.95H48.126ZM47.132 7.124H53.866V14.404H47.132V7.124ZM49.862 5.346L51.052 5.514C50.94 5.91533 50.814 6.32133 50.674 6.732C50.5433 7.14267 50.4127 7.49733 50.282 7.796L49.344 7.6C49.4373 7.28267 49.5307 6.914 49.624 6.494C49.7267 6.06467 49.806 5.682 49.862 5.346ZM48.7 14.712L49.61 15.286C49.3113 15.5193 48.9613 15.7527 48.56 15.986C48.1587 16.2193 47.7433 16.434 47.314 16.63C46.8847 16.826 46.46 16.994 46.04 17.134C45.9653 17.022 45.8627 16.8913 45.732 16.742C45.6013 16.602 45.4847 16.4853 45.382 16.392C45.7833 16.252 46.194 16.0933 46.614 15.916C47.0433 15.7293 47.44 15.5333 47.804 15.328C48.1773 15.1133 48.476 14.908 48.7 14.712ZM51.066 15.328L51.864 14.754C52.1813 14.9127 52.5127 15.0947 52.858 15.3C53.2127 15.5053 53.5533 15.7153 53.88 15.93C54.2067 16.1447 54.4773 16.3407 54.692 16.518L53.852 17.148C53.656 16.9707 53.3993 16.7747 53.082 16.56C52.774 16.3453 52.4427 16.1307 52.088 15.916C51.7333 15.692 51.3927 15.496 51.066 15.328Z" fill="white"/>
</svg>
