<svg width="41" height="23" viewBox="0 0 41 23" fill="none" xmlns="http://www.w3.org/2000/svg">
<g filter="url(#filter0_d_1017_1166)">
<rect x="4" y="4" width="33" height="15" rx="4" fill="#D55555"/>
<path d="M15.016 9.625H15.905V13.293C15.905 13.4143 15.9143 13.5053 15.933 13.566C15.9563 13.622 15.9983 13.6593 16.059 13.678C16.1197 13.6967 16.2107 13.706 16.332 13.706C16.374 13.706 16.4417 13.706 16.535 13.706C16.633 13.706 16.738 13.706 16.85 13.706C16.962 13.706 17.067 13.706 17.165 13.706C17.2677 13.706 17.3423 13.706 17.389 13.706C17.5103 13.706 17.6013 13.6757 17.662 13.615C17.7273 13.5543 17.7717 13.4377 17.795 13.265C17.823 13.0923 17.8463 12.8403 17.865 12.509C17.935 12.5557 18.019 12.6047 18.117 12.656C18.215 12.7027 18.313 12.7447 18.411 12.782C18.5137 12.8193 18.607 12.8473 18.691 12.866C18.6537 13.2907 18.593 13.6243 18.509 13.867C18.4297 14.1097 18.3083 14.2823 18.145 14.385C17.9817 14.4877 17.7553 14.539 17.466 14.539C17.424 14.539 17.3587 14.539 17.27 14.539C17.186 14.539 17.0927 14.539 16.99 14.539C16.8873 14.539 16.7847 14.539 16.682 14.539C16.5793 14.539 16.486 14.539 16.402 14.539C16.3227 14.539 16.2643 14.539 16.227 14.539C15.9097 14.539 15.6623 14.5017 15.485 14.427C15.3123 14.357 15.191 14.231 15.121 14.049C15.051 13.867 15.016 13.615 15.016 13.293V9.625ZM15.1 8.652L15.639 8.043C15.8303 8.16433 16.0287 8.29733 16.234 8.442C16.444 8.58667 16.6447 8.729 16.836 8.869C17.0273 9.009 17.1907 9.13267 17.326 9.24L16.766 9.926C16.6353 9.814 16.4743 9.68333 16.283 9.534C16.0917 9.38467 15.891 9.233 15.681 9.079C15.4757 8.92033 15.282 8.778 15.1 8.652ZM13.889 9.947L14.694 10.15C14.6473 10.4253 14.589 10.7123 14.519 11.011C14.449 11.3097 14.3697 11.5943 14.281 11.865C14.1923 12.1357 14.0897 12.3713 13.973 12.572L13.147 12.271C13.2683 12.0657 13.3757 11.837 13.469 11.585C13.567 11.3283 13.651 11.06 13.721 10.78C13.7957 10.5 13.8517 10.2223 13.889 9.947ZM18.019 10.78L18.775 10.423C18.9243 10.6377 19.069 10.871 19.209 11.123C19.349 11.375 19.4727 11.6223 19.58 11.865C19.692 12.103 19.7783 12.32 19.839 12.516L19.027 12.929C18.9757 12.733 18.8963 12.5113 18.789 12.264C18.6863 12.0167 18.5673 11.7623 18.432 11.501C18.2967 11.2397 18.159 10.9993 18.019 10.78ZM18.355 8.463L19.202 8.799C18.9173 9.34033 18.5883 9.87233 18.215 10.395C17.8463 10.9177 17.4333 11.417 16.976 11.893C16.5187 12.369 16.017 12.81 15.471 13.216C14.9297 13.622 14.3463 13.979 13.721 14.287C13.679 14.2217 13.6253 14.147 13.56 14.063C13.4993 13.9837 13.434 13.9043 13.364 13.825C13.294 13.741 13.2287 13.6733 13.168 13.622C13.7653 13.3513 14.3253 13.0247 14.848 12.642C15.3753 12.2547 15.8607 11.8323 16.304 11.375C16.7473 10.9177 17.1417 10.4417 17.487 9.947C17.8323 9.44767 18.1217 8.953 18.355 8.463ZM21.834 8.169L22.625 8.505C22.4663 8.72433 22.2843 8.93433 22.079 9.135C21.8737 9.331 21.6613 9.51533 21.442 9.688C21.2227 9.86067 21.0033 10.017 20.784 10.157C20.714 10.059 20.6207 9.954 20.504 9.842C20.392 9.72533 20.28 9.62733 20.168 9.548C20.364 9.44067 20.567 9.31467 20.777 9.17C20.987 9.02067 21.1853 8.85967 21.372 8.687C21.5587 8.51433 21.7127 8.34167 21.834 8.169ZM21.988 10.136L22.765 10.472C22.6017 10.696 22.4127 10.9153 22.198 11.13C21.988 11.34 21.7687 11.536 21.54 11.718C21.316 11.9 21.0943 12.0633 20.875 12.208C20.805 12.1053 20.7117 11.9933 20.595 11.872C20.483 11.7507 20.371 11.6457 20.259 11.557C20.4643 11.4497 20.6743 11.3213 20.889 11.172C21.1083 11.018 21.3137 10.8523 21.505 10.675C21.701 10.4977 21.862 10.318 21.988 10.136ZM22.142 12.089L22.94 12.397C22.7673 12.691 22.5667 12.9663 22.338 13.223C22.1093 13.4797 21.862 13.7153 21.596 13.93C21.3347 14.1447 21.0593 14.3337 20.77 14.497C20.7093 14.3897 20.623 14.2707 20.511 14.14C20.399 14.0093 20.287 13.8997 20.175 13.811C20.4317 13.6897 20.6837 13.5427 20.931 13.37C21.183 13.1927 21.414 12.9967 21.624 12.782C21.834 12.5627 22.0067 12.3317 22.142 12.089ZM22.744 8.351H26.72V9.058H22.744V8.351ZM23.815 11.123V11.571H25.663V11.123H23.815ZM23.815 12.145V12.593H25.663V12.145H23.815ZM23.815 10.108V10.549H25.663V10.108H23.815ZM23.031 9.492H26.482V13.209H23.031V9.492ZM24.277 8.722L25.257 8.841C25.187 9.05567 25.1123 9.268 25.033 9.478C24.9537 9.688 24.8837 9.86767 24.823 10.017L24.074 9.884C24.116 9.71133 24.1557 9.51767 24.193 9.303C24.235 9.08833 24.263 8.89467 24.277 8.722ZM23.815 13.223L24.494 13.699C24.34 13.8157 24.1627 13.9323 23.962 14.049C23.7613 14.1657 23.5513 14.273 23.332 14.371C23.1127 14.469 22.9003 14.553 22.695 14.623C22.639 14.539 22.5597 14.441 22.457 14.329C22.359 14.217 22.268 14.1213 22.184 14.042C22.3753 13.9813 22.5737 13.9067 22.779 13.818C22.989 13.7247 23.185 13.6267 23.367 13.524C23.549 13.4167 23.6983 13.3163 23.815 13.223ZM24.879 13.706L25.502 13.258C25.6513 13.3373 25.8123 13.4283 25.985 13.531C26.1623 13.6337 26.3327 13.7387 26.496 13.846C26.6593 13.9533 26.7947 14.0513 26.902 14.14L26.237 14.637C26.139 14.5483 26.013 14.448 25.859 14.336C25.705 14.2287 25.5417 14.119 25.369 14.007C25.1963 13.895 25.033 13.7947 24.879 13.706Z" fill="white"/>
</g>
<defs>
<filter id="filter0_d_1017_1166" x="0" y="0" width="41" height="23" filterUnits="userSpaceOnUse" color-interpolation-filters="sRGB">
<feFlood flood-opacity="0" result="BackgroundImageFix"/>
<feColorMatrix in="SourceAlpha" type="matrix" values="0 0 0 0 0 0 0 0 0 0 0 0 0 0 0 0 0 0 127 0" result="hardAlpha"/>
<feOffset/>
<feGaussianBlur stdDeviation="2"/>
<feComposite in2="hardAlpha" operator="out"/>
<feColorMatrix type="matrix" values="0 0 0 0 1 0 0 0 0 1 0 0 0 0 1 0 0 0 0.25 0"/>
<feBlend mode="normal" in2="BackgroundImageFix" result="effect1_dropShadow_1017_1166"/>
<feBlend mode="normal" in="SourceGraphic" in2="effect1_dropShadow_1017_1166" result="shape"/>
</filter>
</defs>
</svg>
