<svg width="31" height="29" viewBox="0 0 31 29" fill="none" xmlns="http://www.w3.org/2000/svg">
<path d="M13.6672 1.53638C14.1163 0.154439 16.0717 0.154442 16.5208 1.53638L19.1614 9.66528C19.2283 9.87118 19.4205 10.0109 19.637 10.011H28.1838C29.6369 10.011 30.2412 11.8698 29.0657 12.7239L22.1516 17.7483C21.9764 17.8756 21.903 18.1009 21.97 18.3069L24.6106 26.4358C25.0595 27.8176 23.4785 28.9663 22.303 28.1125L15.3879 23.0891C15.2127 22.9618 14.9753 22.9618 14.8 23.0891L7.88501 28.1125C6.70948 28.9664 5.12846 27.8176 5.57739 26.4358L8.21802 18.3069C8.28495 18.1009 8.21162 17.8756 8.03638 17.7483L1.12231 12.7239C-0.0532565 11.8698 0.551066 10.011 2.00415 10.011H10.551C10.7675 10.0109 10.9597 9.87118 11.0266 9.66528L13.6672 1.53638Z" fill="#FFB564" stroke="#D9D9D9"/>
</svg>
