<svg width="40" height="38" viewBox="0 0 40 38" fill="none" xmlns="http://www.w3.org/2000/svg">
<g filter="url(#filter0_d_874_4600)">
<path d="M19.0489 1.92705C19.3483 1.00574 20.6517 1.00574 20.9511 1.92705L23.5922 10.0557C23.7261 10.4678 24.1101 10.7467 24.5433 10.7467L33.0903 10.7467C34.059 10.7467 34.4618 11.9863 33.6781 12.5557L26.7634 17.5795C26.4129 17.8342 26.2663 18.2855 26.4001 18.6976L29.0413 26.8262C29.3406 27.7475 28.2862 28.5137 27.5025 27.9443L20.5878 22.9205C20.2373 22.6658 19.7627 22.6658 19.4122 22.9205L12.4975 27.9443C11.7138 28.5137 10.6594 27.7475 10.9587 26.8262L13.5999 18.6976C13.7337 18.2855 13.5871 17.8342 13.2366 17.5795L6.32194 12.5557C5.53822 11.9863 5.941 10.7467 6.90972 10.7467L15.4567 10.7467C15.8899 10.7467 16.2739 10.4678 16.4078 10.0557L19.0489 1.92705Z" fill="#FFB564"/>
<path d="M18.5732 1.77246C19.0223 0.390523 20.9777 0.390526 21.4268 1.77246L24.0674 9.90137C24.1343 10.1073 24.3265 10.2469 24.543 10.2471H33.0898C34.5429 10.2471 35.1472 12.1059 33.9717 12.96L27.0576 17.9844C26.8824 18.1117 26.809 18.337 26.876 18.543L29.5166 26.6719C29.9655 28.0537 28.3845 29.2024 27.209 28.3486L20.2939 23.3252C20.1187 23.1979 19.8813 23.1979 19.7061 23.3252L12.791 28.3486C11.6155 29.2024 10.0345 28.0537 10.4834 26.6719L13.124 18.543C13.191 18.337 13.1176 18.1117 12.9424 17.9844L6.02832 12.96C4.85275 12.1059 5.45707 10.2471 6.91016 10.2471H15.457C15.6735 10.2469 15.8657 10.1073 15.9326 9.90137L18.5732 1.77246Z" stroke="white"/>
</g>
<defs>
<filter id="filter0_d_874_4600" x="0.905884" y="0.236053" width="38.1882" height="36.9083" filterUnits="userSpaceOnUse" color-interpolation-filters="sRGB">
<feFlood flood-opacity="0" result="BackgroundImageFix"/>
<feColorMatrix in="SourceAlpha" type="matrix" values="0 0 0 0 0 0 0 0 0 0 0 0 0 0 0 0 0 0 127 0" result="hardAlpha"/>
<feOffset dy="4"/>
<feGaussianBlur stdDeviation="2"/>
<feComposite in2="hardAlpha" operator="out"/>
<feColorMatrix type="matrix" values="0 0 0 0 0 0 0 0 0 0 0 0 0 0 0 0 0 0 0.25 0"/>
<feBlend mode="normal" in2="BackgroundImageFix" result="effect1_dropShadow_874_4600"/>
<feBlend mode="normal" in="SourceGraphic" in2="effect1_dropShadow_874_4600" result="shape"/>
</filter>
</defs>
</svg>
