<svg width="39" height="37" viewBox="0 0 39 37" fill="none" xmlns="http://www.w3.org/2000/svg">
<g filter="url(#filter0_d_1207_4703)">
<path d="M17.6672 1.53638C18.1163 0.154439 20.0717 0.154442 20.5208 1.53638L23.1614 9.66528C23.2283 9.87118 23.4205 10.0109 23.637 10.011H32.1838C33.6369 10.011 34.2412 11.8698 33.0657 12.7239L26.1516 17.7483C25.9764 17.8756 25.903 18.1009 25.97 18.3069L28.6106 26.4358C29.0595 27.8176 27.4785 28.9663 26.303 28.1125L19.3879 23.0891C19.2127 22.9618 18.9753 22.9618 18.8 23.0891L11.885 28.1125C10.7095 28.9664 9.12846 27.8176 9.57739 26.4358L12.218 18.3069C12.285 18.1009 12.2116 17.8756 12.0364 17.7483L5.12231 12.7239C3.94674 11.8698 4.55107 10.011 6.00415 10.011H14.551C14.7675 10.0109 14.9597 9.87118 15.0266 9.66528L17.6672 1.53638Z" stroke="white" shape-rendering="crispEdges"/>
</g>
<defs>
<filter id="filter0_d_1207_4703" x="0" y="0" width="38.188" height="36.9083" filterUnits="userSpaceOnUse" color-interpolation-filters="sRGB">
<feFlood flood-opacity="0" result="BackgroundImageFix"/>
<feColorMatrix in="SourceAlpha" type="matrix" values="0 0 0 0 0 0 0 0 0 0 0 0 0 0 0 0 0 0 127 0" result="hardAlpha"/>
<feOffset dy="4"/>
<feGaussianBlur stdDeviation="2"/>
<feComposite in2="hardAlpha" operator="out"/>
<feColorMatrix type="matrix" values="0 0 0 0 0 0 0 0 0 0 0 0 0 0 0 0 0 0 0.25 0"/>
<feBlend mode="normal" in2="BackgroundImageFix" result="effect1_dropShadow_1207_4703"/>
<feBlend mode="normal" in="SourceGraphic" in2="effect1_dropShadow_1207_4703" result="shape"/>
</filter>
</defs>
</svg>
