<svg width="31" height="29" viewBox="0 0 31 29" fill="none" xmlns="http://www.w3.org/2000/svg">
<path d="M13.6674 1.53638C14.1164 0.154439 16.0718 0.154442 16.5209 1.53638L19.1615 9.66528C19.2284 9.87118 19.4206 10.0109 19.6371 10.011H28.184C29.637 10.011 30.2414 11.8698 29.0658 12.7239L22.1517 17.7483C21.9765 17.8756 21.9032 18.1009 21.9701 18.3069L24.6107 26.4358C25.0596 27.8176 23.4786 28.9663 22.3031 28.1125L15.3881 23.0891C15.2128 22.9618 14.9754 22.9618 14.8002 23.0891L7.88513 28.1125C6.7096 28.9664 5.12859 27.8176 5.57751 26.4358L8.21814 18.3069C8.28508 18.1009 8.21174 17.8756 8.0365 17.7483L1.12244 12.7239C-0.0531345 11.8698 0.551188 10.011 2.00427 10.011H10.5511C10.7676 10.0109 10.9598 9.87118 11.0267 9.66528L13.6674 1.53638Z" stroke="white"/>
</svg>
