<svg width="151" height="150" viewBox="0 0 151 150" fill="none" xmlns="http://www.w3.org/2000/svg">
<path d="M66.3821 61.354C61.3304 64.5268 58.404 70.2254 58.7121 76.1705C59.0509 82.1464 62.6241 87.4446 67.9839 90.0629C73.3746 92.6504 79.7509 92.096 84.6179 88.646C89.6696 85.4732 92.596 79.7746 92.2879 73.8295C91.9491 67.8536 88.3759 62.5554 83.0161 59.9371C77.6254 57.3496 71.2491 57.904 66.3821 61.354ZM110.216 40.2844C108.614 38.6826 106.673 37.4196 104.548 36.5879C98.9723 34.4009 86.8049 34.4933 78.95 34.5857C77.6871 34.5857 76.5165 34.6165 75.5 34.6165C74.4835 34.6165 73.2821 34.6165 71.9884 34.5857C64.1335 34.4933 52.0277 34.3701 46.4522 36.5879C44.3268 37.4196 42.417 38.6826 40.7844 40.2844C39.1518 41.8862 37.9196 43.8268 37.0879 45.9522C34.9009 51.5277 35.0241 63.7259 35.0857 71.5808C35.0857 72.8438 35.1165 74.0143 35.1165 75C35.1165 75.9857 35.1165 77.1562 35.0857 78.4192C35.0241 86.2741 34.9009 98.4723 37.0879 104.048C37.9196 106.173 39.1826 108.083 40.7844 109.716C42.3862 111.348 44.3268 112.58 46.4522 113.412C52.0277 115.599 64.1951 115.507 72.05 115.414C73.3129 115.414 74.4835 115.383 75.5 115.383C76.5165 115.383 77.7178 115.383 79.0116 115.414C86.8665 115.507 98.9723 115.63 104.548 113.412C106.673 112.58 108.583 111.317 110.216 109.716C111.848 108.114 113.08 106.173 113.912 104.048C116.13 98.5031 116.007 86.3665 115.914 78.4808C115.914 77.187 115.883 75.9857 115.883 74.9692C115.883 73.9527 115.883 72.7821 115.914 71.4576C116.007 63.6027 116.13 51.4661 113.912 45.8906C113.08 43.7652 111.817 41.8554 110.216 40.2228V40.2844ZM89.5464 53.992C95.1219 57.7192 98.9723 63.5103 100.297 70.0714C101.621 76.6326 100.235 83.471 96.508 89.0464C94.6598 91.8188 92.2879 94.1598 89.5464 96.008C86.8049 97.8562 83.6937 99.1192 80.4286 99.7661C73.8674 101.06 67.029 99.7045 61.4536 95.9772C55.8781 92.25 52.0277 86.4589 50.7031 79.8978C49.3786 73.3366 50.7647 66.4982 54.4612 60.9228C58.1576 55.3473 63.9795 51.4969 70.5406 50.1723C77.1018 48.8478 83.9402 50.2339 89.5156 53.9304H89.5464V53.992ZM98.5411 53.5915C97.5862 52.9446 96.8161 52.0205 96.354 50.9424C95.892 49.8643 95.7996 48.6938 96.0152 47.5232C96.2308 46.3527 96.8161 45.3362 97.617 44.5045C98.4178 43.6728 99.496 43.1183 100.636 42.9027C101.775 42.6871 102.977 42.7795 104.055 43.2415C105.133 43.7036 106.057 44.4429 106.704 45.3978C107.351 46.3527 107.69 47.4924 107.69 48.6629C107.69 49.433 107.536 50.2031 107.258 50.9116C106.981 51.6201 106.519 52.267 105.996 52.8214C105.472 53.3759 104.794 53.8071 104.086 54.1152C103.377 54.4232 102.607 54.5772 101.837 54.5772C100.667 54.5772 99.5268 54.2384 98.5719 53.5915H98.5411ZM144.5 25.7143C144.5 14.8406 135.659 6 124.786 6H26.2143C15.3406 6 6.5 14.8406 6.5 25.7143V124.286C6.5 135.159 15.3406 144 26.2143 144H124.786C135.659 144 144.5 135.159 144.5 124.286V25.7143ZM116.469 115.969C110.708 121.729 103.716 123.546 95.8304 123.947C87.6982 124.409 63.3018 124.409 55.1696 123.947C47.2839 123.546 40.2915 121.729 34.5312 115.969C28.771 110.208 26.9536 103.216 26.5839 95.3304C26.1219 87.1982 26.1219 62.8018 26.5839 54.6696C26.9844 46.7839 28.771 39.7915 34.5312 34.0312C40.2915 28.271 47.3147 26.4536 55.1696 26.0839C63.3018 25.6219 87.6982 25.6219 95.8304 26.0839C103.716 26.4844 110.708 28.271 116.469 34.0312C122.229 39.7915 124.046 46.7839 124.416 54.6696C124.878 62.771 124.878 87.1366 124.416 95.2995C124.016 103.185 122.229 110.178 116.469 115.938V115.969Z" fill="#E28888"/>
<path d="M0.5 124.286V25.7139C0.500226 11.5268 12.0268 0.000226248 26.2139 0L26.2143 6C15.3406 6 6.5 14.8406 6.5 25.7143V124.286L6.50684 124.794C6.77718 135.433 15.5107 144 26.2143 144H124.786C135.489 144 144.223 135.433 144.493 124.794L144.5 124.286V25.7143C144.5 15.0107 135.933 6.27718 125.294 6.00684L124.786 6L124.786 0C138.973 0.000227295 150.5 11.5268 150.5 25.7139V124.286C150.5 138.473 138.973 150 124.786 150H26.2139C12.0268 150 0.500227 138.473 0.5 124.286ZM55.1696 26.0839C63.3018 25.6219 87.6982 25.6219 95.8304 26.0839C103.716 26.4844 110.708 28.271 116.469 34.0312C122.229 39.7915 124.046 46.7839 124.416 54.6696L124.497 56.3711C124.876 65.753 124.849 87.6467 124.416 95.2995L124.374 96.0361C123.9 103.621 122.049 110.358 116.469 115.938V115.969C110.708 121.729 103.716 123.546 95.8304 123.947C87.6982 124.409 63.3018 124.409 55.1696 123.947C47.2839 123.546 40.2915 121.729 34.5312 115.969C28.9511 110.389 27.0712 103.652 26.623 96.0674L26.5839 95.3304C26.1508 87.7062 26.1239 65.7875 26.5029 56.377L26.5839 54.6696C26.9844 46.7839 28.771 39.7915 34.5312 34.0312C40.2915 28.271 47.3147 26.4536 55.1696 26.0839ZM75.5 34.6165C74.4835 34.6165 73.2821 34.6165 71.9884 34.5857C64.1335 34.4933 52.0277 34.3701 46.4522 36.5879C44.3268 37.4196 42.417 38.6826 40.7844 40.2844C39.1518 41.8862 37.9196 43.8268 37.0879 45.9522C34.9009 51.5277 35.0241 63.7259 35.0857 71.5808L35.1016 73.3945C35.1093 73.9682 35.1165 74.5072 35.1165 75C35.1165 75.9857 35.1165 77.1562 35.0857 78.4192L35.0645 81.5469C35.0295 89.2201 35.1743 99.1692 37.0879 104.048C37.9196 106.173 39.1826 108.083 40.7844 109.716C42.3862 111.348 44.3268 112.58 46.4522 113.412C52.0277 115.599 64.1951 115.507 72.05 115.414C73.3129 115.414 74.4835 115.383 75.5 115.383L77.1514 115.388C77.7406 115.392 78.3646 115.399 79.0116 115.414L82.1357 115.445C89.7912 115.5 99.6693 115.353 104.548 113.412C106.54 112.632 108.343 111.473 109.906 110.012L110.216 109.716C111.848 108.114 113.08 106.173 113.912 104.048C116.13 98.5031 116.007 86.3665 115.914 78.4808C115.914 77.8341 115.906 77.2101 115.898 76.6211L115.883 74.9692C115.883 74.2068 115.883 73.3575 115.896 72.4219L115.914 71.4576C116.007 63.6027 116.13 51.4661 113.912 45.8906C113.08 43.7652 111.817 41.8554 110.216 40.2228V40.2844C108.614 38.6826 106.673 37.4196 104.548 36.5879C98.9723 34.4009 86.8049 34.4933 78.95 34.5857L77.1328 34.6016C76.5552 34.6093 76.0083 34.6165 75.5 34.6165ZM70.5406 50.1723C76.8966 48.8893 83.5131 50.1502 88.9893 53.5908L89.5156 53.9304H89.5464V53.992C95.1219 57.7192 98.9723 63.5103 100.297 70.0714C101.621 76.6326 100.235 83.471 96.508 89.0464C94.6598 91.8188 92.2879 94.1598 89.5464 96.008L89.0283 96.3477C86.4156 98.0117 83.4897 99.1596 80.4286 99.7661L79.8125 99.8799C73.6465 100.938 67.2791 99.6746 61.9795 96.3193L61.4536 95.9772C55.8781 92.25 52.0277 86.4589 50.7031 79.8978C49.4201 73.5418 50.6806 66.9253 54.1211 61.4492L54.4612 60.9228C58.0421 55.5215 63.6177 51.739 69.9277 50.3037L70.5406 50.1723ZM83.0161 59.9371C77.6254 57.3496 71.2491 57.904 66.3821 61.354L65.915 61.6592C61.1509 64.8836 58.4136 70.4112 58.7121 76.1705C59.0509 82.1464 62.6241 87.4446 67.9839 90.0629L68.4922 90.2959C73.7717 92.6126 79.903 91.9882 84.6179 88.646C89.5116 85.5723 92.4113 80.1279 92.3076 74.3857L92.2879 73.8295C91.9491 67.8536 88.3759 62.5554 83.0161 59.9371ZM100.636 42.9027C101.775 42.6871 102.977 42.7795 104.055 43.2415C105.133 43.7036 106.057 44.4429 106.704 45.3978C107.351 46.3527 107.69 47.4924 107.69 48.6629L107.683 48.9512C107.649 49.6241 107.501 50.2917 107.258 50.9116L107.146 51.1748C106.865 51.7807 106.454 52.3363 105.996 52.8214C105.472 53.3759 104.794 53.8071 104.086 54.1152L103.817 54.2236C103.185 54.4595 102.511 54.5772 101.837 54.5772C100.667 54.5772 99.5268 54.2384 98.5719 53.5915H98.5411L98.3643 53.4668C97.5494 52.8709 96.8819 52.0687 96.4443 51.1426L96.354 50.9424C95.892 49.8643 95.7996 48.6938 96.0152 47.5232C96.2308 46.3527 96.8161 45.3362 97.617 44.5045C98.4178 43.6728 99.496 43.1183 100.636 42.9027ZM124.786 0L124.786 6H26.2143L26.2139 0H124.786ZM101.891 48.6455L101.803 48.7764C101.821 48.766 101.848 48.7449 101.885 48.7129C101.887 48.708 101.89 48.7032 101.893 48.6973C101.895 48.6904 101.895 48.6823 101.897 48.6748C101.896 48.6691 101.896 48.6621 101.895 48.6553C101.894 48.6519 101.892 48.6489 101.891 48.6455Z" fill="white"/>
</svg>
