<svg width="150" height="150" viewBox="0 0 150 150" fill="none" xmlns="http://www.w3.org/2000/svg">
<path d="M64.8125 15.1719C79.5465 0.437904 103.454 0.437906 118.188 15.1719C132.921 29.9058 132.921 53.8129 118.188 68.5469L79.75 106.984C70.1254 116.609 54.5387 116.609 44.9141 106.984C35.2895 97.3598 35.2895 81.773 44.9141 72.1484L44.916 72.1465L80.7285 36.3809C85.2205 31.891 92.5089 31.8917 97 36.3828C101.492 40.8746 101.492 48.1645 97 52.6562L96.999 52.6572L61.1865 88.4463C60.5381 89.0958 60.5608 90.1132 61.1729 90.7188C61.8453 91.384 62.874 91.3423 63.4609 90.749L63.4688 90.7412L63.4766 90.7344L101.914 52.2969C107.664 46.5465 107.664 37.1957 101.914 31.4453C96.1637 25.6949 86.8129 25.6949 81.0625 31.4453L42.625 69.8828C31.7418 80.766 31.7418 98.4137 42.625 109.297C53.5082 120.18 71.1558 120.18 82.0391 109.297L82.04 109.296L112.556 78.8037C117.048 74.3129 124.337 74.3132 128.828 78.8047C133.32 83.2965 133.32 90.5863 128.828 95.0781L128.826 95.0811L98.3105 125.55L98.3096 125.549C78.4426 145.413 46.241 145.413 26.375 125.547C6.50822 105.68 6.50822 73.4762 26.375 53.6094L64.8125 15.1719Z" fill="#E28888" stroke="white" stroke-width="8"/>
</svg>
