<svg width="100" height="100" viewBox="0 0 100 100" fill="none" xmlns="http://www.w3.org/2000/svg">
<path d="M43.3262 10.2324C53.0837 0.474862 68.9163 0.474861 78.6738 10.2324C88.4314 19.99 88.4314 35.8225 78.6738 45.5801L53.0488 71.2051C46.6975 77.5564 36.4119 77.5564 30.0605 71.2051C23.7092 64.8538 23.7092 54.5681 30.0605 48.2168L30.0615 48.2158L53.9365 24.3721C56.866 21.4436 61.6197 21.4439 64.5488 24.373C67.4783 27.3025 67.4783 32.0569 64.5488 34.9863V34.9873L40.6738 58.8467L40.6729 58.8457C40.1758 59.3433 40.19 60.1283 40.6641 60.5977C41.176 61.1042 41.9681 61.0795 42.4258 60.6172L68.0605 34.9824C71.9592 31.0837 71.9592 24.7444 68.0605 20.8457C64.1619 16.947 57.8225 16.947 53.9238 20.8457L28.2988 46.4707C20.9783 53.7913 20.9783 65.6619 28.2988 72.9824C35.6194 80.303 47.49 80.303 54.8105 72.9824V72.9814L75.1543 52.6533C78.0838 49.7244 82.8383 49.725 85.7676 52.6543C88.697 55.5837 88.697 60.3381 85.7676 63.2676L85.7666 63.2695L65.4229 83.582L65.4219 83.5811C52.2423 96.759 30.8801 96.759 17.7012 83.5801C4.52174 70.4006 4.52174 49.0369 17.7012 35.8574L43.3262 10.2324Z" fill="#E28888" stroke="white" stroke-width="5"/>
</svg>
