<svg width="10" height="14" viewBox="0 0 10 14" fill="none" xmlns="http://www.w3.org/2000/svg">
<path d="M0 2.4706C0 1.10662 1.11951 0 2.49937 0H7.49811C8.87798 0 9.99749 1.10662 9.99749 2.4706V9.05888C9.99749 10.0909 9.35702 10.9762 8.4484 11.3442L9.85169 12.9835C10.0756 13.2435 10.0417 13.6346 9.77879 13.8534C9.51584 14.0721 9.1201 14.0413 8.8988 13.7813L6.9722 11.5295H3.03309L1.10649 13.7813C0.88259 14.0413 0.48946 14.0747 0.226505 13.8534C-0.0364493 13.6321 -0.070295 13.2435 0.153607 12.9835L1.5569 11.3442C0.640464 10.9762 0 10.0909 0 9.05888V2.4706ZM1.66625 3.29414V5.76474C1.66625 6.22026 2.03855 6.58828 2.49937 6.58828H7.49811C7.95894 6.58828 8.33124 6.22026 8.33124 5.76474V3.29414C8.33124 2.83862 7.95894 2.4706 7.49811 2.4706H2.49937C2.03855 2.4706 1.66625 2.83862 1.66625 3.29414ZM4.99874 9.88241C5.45956 9.88241 5.83187 9.5144 5.83187 9.05888C5.83187 8.60336 5.45956 8.23534 4.99874 8.23534C4.53792 8.23534 4.16562 8.60336 4.16562 9.05888C4.16562 9.5144 4.53792 9.88241 4.99874 9.88241Z" fill="#545454"/>
</svg>
