<svg width="100" height="100" viewBox="0 0 100 100" fill="none" xmlns="http://www.w3.org/2000/svg">
<path d="M43.9214 40.9027C40.5536 43.0179 38.6027 46.817 38.808 50.7804C39.0339 54.7643 41.4161 58.2964 44.9893 60.042C48.583 61.767 52.8339 61.3973 56.0786 59.0973C59.4464 56.9821 61.3973 53.183 61.192 49.2196C60.9661 45.2357 58.5839 41.7036 55.0107 39.958C51.417 38.233 47.1661 38.6027 43.9214 40.9027ZM73.1438 26.8563C72.0759 25.7884 70.7821 24.9464 69.3652 24.392C65.6482 22.9339 57.5366 22.9955 52.3 23.0571C51.458 23.0571 50.6777 23.0777 50 23.0777C49.3223 23.0777 48.5214 23.0777 47.6589 23.0571C42.4223 22.9955 34.3518 22.9134 30.6348 24.392C29.2179 24.9464 27.9446 25.7884 26.8563 26.8563C25.7679 27.9241 24.9464 29.2179 24.392 30.6348C22.9339 34.3518 23.0161 42.4839 23.0571 47.7205C23.0571 48.5625 23.0777 49.3429 23.0777 50C23.0777 50.6571 23.0777 51.4375 23.0571 52.2795C23.0161 57.5161 22.9339 65.6482 24.392 69.3652C24.9464 70.7821 25.7884 72.0554 26.8563 73.1438C27.9241 74.2321 29.2179 75.0536 30.6348 75.608C34.3518 77.0661 42.4634 77.0045 47.7 76.9429C48.542 76.9429 49.3223 76.9223 50 76.9223C50.6777 76.9223 51.4786 76.9223 52.3411 76.9429C57.5777 77.0045 65.6482 77.0866 69.3652 75.608C70.7821 75.0536 72.0554 74.2116 73.1438 73.1438C74.2321 72.0759 75.0536 70.7821 75.608 69.3652C77.0866 65.6687 77.0045 57.5777 76.9429 52.3205C76.9429 51.458 76.9223 50.6571 76.9223 49.9795C76.9223 49.3018 76.9223 48.5214 76.9429 47.6384C77.0045 42.4018 77.0866 34.3107 75.608 30.5938C75.0536 29.1768 74.2116 27.9036 73.1438 26.8152V26.8563ZM59.3643 35.9946C63.0813 38.4795 65.6482 42.3402 66.5313 46.7143C67.4143 51.0884 66.4902 55.6473 64.0054 59.3643C62.7732 61.2125 61.192 62.7732 59.3643 64.0054C57.5366 65.2375 55.4625 66.0795 53.2857 66.5107C48.9116 67.3732 44.3527 66.4696 40.6357 63.9848C36.9187 61.5 34.3518 57.6393 33.4688 53.2652C32.5857 48.8911 33.5098 44.3321 35.9741 40.6152C38.4384 36.8982 42.3196 34.3312 46.6938 33.4482C51.0679 32.5652 55.6268 33.4893 59.3438 35.9536H59.3643V35.9946ZM65.3607 35.7277C64.7241 35.2964 64.2107 34.6804 63.9027 33.9616C63.5946 33.2429 63.533 32.4625 63.6768 31.6821C63.8205 30.9018 64.2107 30.2241 64.7446 29.6696C65.2786 29.1152 65.9973 28.7455 66.7571 28.6018C67.517 28.458 68.3179 28.5196 69.0366 28.8277C69.7554 29.1357 70.3714 29.6286 70.8027 30.2652C71.2339 30.9018 71.4598 31.6616 71.4598 32.442C71.4598 32.9554 71.3571 33.4688 71.1723 33.9411C70.9875 34.4134 70.6795 34.8446 70.3304 35.2143C69.9812 35.5839 69.5295 35.8714 69.0571 36.0768C68.5848 36.2821 68.0714 36.3848 67.558 36.3848C66.7777 36.3848 66.0179 36.1589 65.3813 35.7277H65.3607ZM96 17.1429C96 9.89375 90.1063 4 82.8571 4H17.1429C9.89375 4 4 9.89375 4 17.1429V82.8571C4 90.1063 9.89375 96 17.1429 96H82.8571C90.1063 96 96 90.1063 96 82.8571V17.1429ZM77.3125 77.3125C73.4723 81.1527 68.8107 82.3643 63.5536 82.6313C58.1321 82.9393 41.8679 82.9393 36.4464 82.6313C31.1893 82.3643 26.5277 81.1527 22.6875 77.3125C18.8473 73.4723 17.6357 68.8107 17.3893 63.5536C17.0812 58.1321 17.0812 41.8679 17.3893 36.4464C17.6562 31.1893 18.8473 26.5277 22.6875 22.6875C26.5277 18.8473 31.2098 17.6357 36.4464 17.3893C41.8679 17.0812 58.1321 17.0812 63.5536 17.3893C68.8107 17.6562 73.4723 18.8473 77.3125 22.6875C81.1527 26.5277 82.3643 31.1893 82.6107 36.4464C82.9187 41.8473 82.9187 58.0911 82.6107 63.533C82.3438 68.7902 81.1527 73.4518 77.3125 77.292V77.3125Z" fill="#E28888"/>
<path d="M0 82.8574V17.1426C0.000150842 7.68455 7.68455 0.000150832 17.1426 0L17.1429 4C9.89375 4 4 9.89375 4 17.1429V82.8571L4.00456 83.196C4.18478 90.2889 10.0072 95.9999 17.1429 96H82.8571C89.9928 95.9999 95.8152 90.2889 95.9954 83.196L96 82.8571V17.1429C95.9999 10.0072 90.2889 4.18478 83.196 4.00456L82.8571 4L82.8574 0C92.3155 0.00015153 99.9999 7.68455 100 17.1426V82.8574C99.9999 92.3155 92.3155 99.9999 82.8574 100H17.1426C7.68455 99.9999 0.000151521 92.3155 0 82.8574ZM36.4464 17.3893C41.8679 17.0812 58.1321 17.0812 63.5536 17.3893C68.8107 17.6562 73.4723 18.8473 77.3125 22.6875C81.1527 26.5277 82.3643 31.1893 82.6107 36.4464L82.6647 37.5807C82.9174 43.8354 82.8995 58.4311 82.6107 63.533L82.5827 64.0241C82.2665 69.0806 81.0326 73.5718 77.3125 77.292V77.3125C73.4723 81.1527 68.8107 82.3643 63.5536 82.6313C58.1321 82.9393 41.8679 82.9393 36.4464 82.6313C31.1893 82.3643 26.5277 81.1527 22.6875 77.3125C18.9674 73.5924 17.7141 69.1014 17.4154 64.0449L17.3893 63.5536C17.1005 58.4708 17.0826 43.8583 17.3353 37.5846L17.3893 36.4464C17.6562 31.1893 18.8473 26.5277 22.6875 22.6875C26.5277 18.8473 31.2098 17.6357 36.4464 17.3893ZM50 23.0777C49.3223 23.0777 48.5214 23.0777 47.6589 23.0571C42.4223 22.9955 34.3518 22.9134 30.6348 24.392C29.2179 24.9464 27.9446 25.7884 26.8563 26.8563C25.7679 27.9241 24.9464 29.2179 24.392 30.6348C22.9339 34.3518 23.0161 42.4839 23.0571 47.7205L23.0677 48.9297C23.0728 49.3121 23.0777 49.6715 23.0777 50C23.0777 50.6571 23.0777 51.4375 23.0571 52.2795L23.043 54.3646C23.0197 59.4801 23.1162 66.1128 24.392 69.3652C24.9464 70.7821 25.7884 72.0554 26.8563 73.1438C27.9241 74.2321 29.2179 75.0536 30.6348 75.608C34.3518 77.0661 42.4634 77.0045 47.7 76.9429C48.542 76.9429 49.3223 76.9223 50 76.9223L51.1009 76.9251C51.4937 76.9277 51.9097 76.9326 52.3411 76.9429L54.4238 76.9635C59.5275 77.0003 66.1129 76.9018 69.3652 75.608C70.6936 75.0882 71.8956 74.3156 72.9375 73.3411L73.1438 73.1438C74.2321 72.0759 75.0536 70.7821 75.608 69.3652C77.0866 65.6687 77.0045 57.5777 76.9429 52.3205C76.9429 51.8894 76.9374 51.4734 76.9323 51.0807L76.9223 49.9795C76.9223 49.4712 76.9223 48.905 76.931 48.2813L76.9429 47.6384C77.0045 42.4018 77.0866 34.3107 75.608 30.5938C75.0536 29.1768 74.2116 27.9036 73.1438 26.8152V26.8563C72.0759 25.7884 70.7821 24.9464 69.3652 24.392C65.6482 22.9339 57.5366 22.9955 52.3 23.0571L51.0885 23.0677C50.7034 23.0728 50.3389 23.0777 50 23.0777ZM46.6938 33.4482C50.9311 32.5929 55.3421 33.4335 58.9928 35.7272L59.3438 35.9536H59.3643V35.9946C63.0813 38.4795 65.6482 42.3402 66.5313 46.7143C67.4143 51.0884 66.4902 55.6473 64.0054 59.3643C62.7732 61.2125 61.192 62.7732 59.3643 64.0054L59.0189 64.2318C57.2771 65.3411 55.3264 66.1064 53.2857 66.5107L52.875 66.5866C48.7643 67.2918 44.5194 66.4497 40.9863 64.2129L40.6357 63.9848C36.9187 61.5 34.3518 57.6393 33.4688 53.2652C32.6134 49.0279 33.4537 44.6169 35.7474 40.9661L35.9741 40.6152C38.3614 37.0144 42.0784 34.4927 46.2852 33.5358L46.6938 33.4482ZM55.0107 39.958C51.417 38.233 47.1661 38.6027 43.9214 40.9027L43.61 41.1061C40.4339 43.2557 38.6091 46.9408 38.808 50.7804C39.0339 54.7643 41.4161 58.2964 44.9893 60.042L45.3281 60.1973C48.8478 61.7417 52.9353 61.3255 56.0786 59.0973C59.3411 57.0482 61.2742 53.4186 61.2051 49.5905L61.192 49.2196C60.9661 45.2357 58.5839 41.7036 55.0107 39.958ZM66.7571 28.6018C67.517 28.458 68.3179 28.5196 69.0366 28.8277C69.7554 29.1357 70.3714 29.6286 70.8027 30.2652C71.2339 30.9018 71.4598 31.6616 71.4598 32.442L71.4551 32.6341C71.4329 33.0827 71.334 33.5278 71.1723 33.9411L71.0977 34.1165C70.9101 34.5205 70.6358 34.8909 70.3304 35.2143C69.9812 35.5839 69.5295 35.8714 69.0571 36.0768L68.8783 36.1491C68.4565 36.3063 68.0073 36.3848 67.558 36.3848C66.7777 36.3848 66.0179 36.1589 65.3813 35.7277H65.3607L65.2428 35.6445C64.6996 35.2472 64.2546 34.7125 63.9629 34.0951L63.9027 33.9616C63.5946 33.2429 63.533 32.4625 63.6768 31.6821C63.8205 30.9018 64.2107 30.2241 64.7446 29.6696C65.2786 29.1152 65.9973 28.7455 66.7571 28.6018ZM82.8574 0L82.8571 4H17.1429L17.1426 0H82.8574ZM67.5938 32.4303L67.5352 32.5176C67.5472 32.5107 67.5653 32.4966 67.5898 32.4753C67.5912 32.472 67.5936 32.4688 67.5951 32.4648C67.5967 32.4603 67.5968 32.4548 67.5983 32.4499C67.5975 32.4461 67.5975 32.4414 67.5964 32.4368C67.5958 32.4346 67.5944 32.4326 67.5938 32.4303Z" fill="white"/>
</svg>
