<svg width="80" height="80" viewBox="0 0 80 80" fill="none" xmlns="http://www.w3.org/2000/svg">
<g filter="url(#filter0_d_699_5756)">
<path d="M34.2386 21.3273C34.5038 20.5333 35.2391 20 36.0708 20H42.9353C43.767 20 44.5022 20.5333 44.7674 21.3273L45.2857 22.9091H51.0714C52.1382 22.9091 53 23.7758 53 24.8485C53 25.9212 52.1382 26.7879 51.0714 26.7879H27.9286C26.8618 26.7879 26 25.9212 26 24.8485C26 23.7758 26.8618 22.9091 27.9286 22.9091H33.7143L34.2386 21.3273ZM27.9286 29.697H51.0714V48.1212C51.0714 50.2606 49.3417 52 47.2143 52H31.7857C29.6583 52 27.9286 50.2606 27.9286 48.1212V29.697ZM33.2321 33.5758C32.4306 33.5758 31.7857 34.2242 31.7857 35.0303V46.6667C31.7857 47.4727 32.4306 48.1212 33.2321 48.1212C34.0337 48.1212 34.6786 47.4727 34.6786 46.6667V35.0303C34.6786 34.2242 34.0337 33.5758 33.2321 33.5758ZM39.5 33.5758C38.6984 33.5758 38.0536 34.2242 38.0536 35.0303V46.6667C38.0536 47.4727 38.6984 48.1212 39.5 48.1212C40.3016 48.1212 40.9464 47.4727 40.9464 46.6667V35.0303C40.9464 34.2242 40.3016 33.5758 39.5 33.5758ZM45.7679 33.5758C44.9663 33.5758 44.3214 34.2242 44.3214 35.0303V46.6667C44.3214 47.4727 44.9663 48.1212 45.7679 48.1212C46.5694 48.1212 47.2143 47.4727 47.2143 46.6667V35.0303C47.2143 34.2242 46.5694 33.5758 45.7679 33.5758Z" fill="white"/>
<circle cx="40" cy="36" r="29.5" stroke="white"/>
</g>
<defs>
<filter id="filter0_d_699_5756" x="0" y="0" width="80" height="80" filterUnits="userSpaceOnUse" color-interpolation-filters="sRGB">
<feFlood flood-opacity="0" result="BackgroundImageFix"/>
<feColorMatrix in="SourceAlpha" type="matrix" values="0 0 0 0 0 0 0 0 0 0 0 0 0 0 0 0 0 0 127 0" result="hardAlpha"/>
<feOffset dy="4"/>
<feGaussianBlur stdDeviation="5"/>
<feComposite in2="hardAlpha" operator="out"/>
<feColorMatrix type="matrix" values="0 0 0 0 0 0 0 0 0 0 0 0 0 0 0 0 0 0 1 0"/>
<feBlend mode="normal" in2="BackgroundImageFix" result="effect1_dropShadow_699_5756"/>
<feBlend mode="normal" in="SourceGraphic" in2="effect1_dropShadow_699_5756" result="shape"/>
</filter>
</defs>
</svg>
