<svg width="60" height="60" viewBox="0 0 60 60" fill="none" xmlns="http://www.w3.org/2000/svg">
<path d="M30 0C46.5685 0 60 13.4315 60 30C60 46.5685 46.5685 60 30 60C13.4315 60 0 46.5685 0 30C0 13.4315 13.4315 0 30 0ZM30 1C13.9837 1 1 13.9837 1 30C1 46.0163 13.9837 59 30 59C46.0163 59 59 46.0163 59 30C59 13.9837 46.0163 1 30 1ZM26.8096 17.5469C27.5946 17.547 28.2263 18.1789 28.2266 18.9639C28.2266 19.7491 27.5948 20.3817 26.8096 20.3818H20.1963C18.8914 20.3818 17.8341 21.4383 17.834 22.7432V38.8037C17.834 40.1086 18.8914 41.166 20.1963 41.166H36.2568C37.5617 41.1659 38.6182 40.1086 38.6182 38.8037V32.1904C38.6183 31.4052 39.2509 30.7734 40.0361 30.7734C40.8211 30.7737 41.453 31.4054 41.4531 32.1904V38.8037C41.4531 41.6733 39.1264 43.9999 36.2568 44H20.1963C17.3266 44 15 41.6734 15 38.8037V22.7432C15.0001 19.8736 17.3267 17.5469 20.1963 17.5469H26.8096ZM37.0303 15.2441C38.6894 13.5852 41.3818 13.5852 43.041 15.2441L43.7559 15.959C45.4148 17.6182 45.4148 20.3106 43.7559 21.9697L32.1055 33.6133C31.5977 34.1211 30.9662 34.4936 30.2695 34.6943L24.3652 36.3828C23.8693 36.5245 23.3378 36.3885 22.9717 36.0225C22.6056 35.6564 22.4696 35.1249 22.6113 34.6289L24.2998 28.7246C24.4946 28.034 24.8664 27.4023 25.3799 26.8887L37.0303 15.2441ZM27.3877 28.8955L27.3818 28.8896C27.2106 29.0609 27.0864 29.2737 27.0215 29.5039L26.0361 32.958L29.4902 31.9727C29.7205 31.9077 29.9333 31.7835 30.1045 31.6123L38.0342 23.6885L35.3115 20.9658L27.3877 28.8955ZM41.0332 17.2461C40.4841 16.6913 39.5872 16.6913 39.0322 17.2461L37.3135 18.9639L40.0361 21.6865L41.7539 19.9619C42.3087 19.4128 42.3087 18.5159 41.7539 17.9609L41.0391 17.2461H41.0332Z" fill="white"/>
</svg>
