<svg width="60" height="60" viewBox="0 0 60 60" fill="none" xmlns="http://www.w3.org/2000/svg">
<path d="M30 0C46.5685 0 60 13.4315 60 30C60 46.5685 46.5685 60 30 60C13.4315 60 0 46.5685 0 30C0 13.4315 13.4315 0 30 0ZM30 1C13.9837 1 1 13.9837 1 30C1 46.0163 13.9837 59 30 59C46.0163 59 59 46.0163 59 30C59 13.9837 46.0163 1 30 1ZM41.0713 42.1211C41.0713 44.2605 39.3413 46 37.2139 46H21.7861C19.6587 46 17.9287 44.2605 17.9287 42.1211V23.6973H41.0713V42.1211ZM23.2324 27.5762C22.4309 27.5762 21.7861 28.2242 21.7861 29.0303V40.667C21.7863 41.4729 22.431 42.1211 23.2324 42.1211C24.0337 42.1209 24.6785 41.4728 24.6787 40.667V29.0303C24.6787 28.2243 24.0338 27.5763 23.2324 27.5762ZM29.5 27.5762C28.6984 27.5762 28.0537 28.2242 28.0537 29.0303V40.667C28.0539 41.4729 28.6985 42.1211 29.5 42.1211C30.3015 42.1211 30.9461 41.4729 30.9463 40.667V29.0303C30.9463 28.2242 30.3016 27.5762 29.5 27.5762ZM35.7676 27.5762C34.9662 27.5763 34.3213 28.2243 34.3213 29.0303V40.667C34.3215 41.4728 34.9663 42.1209 35.7676 42.1211C36.569 42.1211 37.2137 41.4729 37.2139 40.667V29.0303C37.2139 28.2242 36.5691 27.5762 35.7676 27.5762ZM32.9355 14C33.7671 14.0001 34.5024 14.5333 34.7676 15.3271L35.2861 16.9092H41.0713C42.138 16.9092 43 17.7759 43 18.8486C42.9999 19.9213 42.138 20.7881 41.0713 20.7881H17.9287C16.862 20.7881 16.0001 19.9213 16 18.8486C16 17.7759 16.862 16.9092 17.9287 16.9092H23.7139L24.2383 15.3271C24.5034 14.5334 25.2388 14.0002 26.0703 14H32.9355Z" fill="white"/>
</svg>
