<svg width="80" height="80" viewBox="0 0 80 80" fill="none" xmlns="http://www.w3.org/2000/svg">
<g filter="url(#filter0_d_699_5752)">
<path d="M51.0395 23.2461L51.7539 23.9605C52.309 24.5156 52.309 25.4131 51.7539 25.9622L50.0357 27.6864L47.3136 24.9643L49.0319 23.2461C49.5869 22.691 50.4844 22.691 51.0336 23.2461H51.0395ZM37.3879 34.8959L45.312 26.966L48.034 29.688L40.1041 37.6121C39.9328 37.7833 39.7203 37.9073 39.49 37.9722L36.0358 38.9583L37.0218 35.5041C37.0868 35.2738 37.2108 35.0613 37.382 34.89L37.3879 34.8959ZM47.0302 21.2444L35.3804 32.8884C34.8667 33.4021 34.4947 34.0339 34.2998 34.7247L32.6111 40.6293C32.4694 41.1253 32.6052 41.6567 32.9713 42.0228C33.3374 42.3889 33.8688 42.5247 34.3648 42.383L40.2694 40.6943C40.9661 40.4935 41.5979 40.1215 42.1057 39.6137L53.7556 27.9698C55.4148 26.3106 55.4148 23.6181 53.7556 21.9589L53.0411 21.2444C51.3819 19.5852 48.6894 19.5852 47.0302 21.2444ZM30.1961 23.5472C27.3264 23.5472 25 25.8736 25 28.7433V44.8039C25 47.6736 27.3264 50 30.1961 50H46.2567C49.1264 50 51.4528 47.6736 51.4528 44.8039V38.1907C51.4528 37.4054 50.821 36.7736 50.0357 36.7736C49.2504 36.7736 48.6186 37.4054 48.6186 38.1907V44.8039C48.6186 46.1088 47.5616 47.1658 46.2567 47.1658H30.1961C28.8912 47.1658 27.8342 46.1088 27.8342 44.8039V28.7433C27.8342 27.4384 28.8912 26.3814 30.1961 26.3814H36.8093C37.5946 26.3814 38.2264 25.7496 38.2264 24.9643C38.2264 24.179 37.5946 23.5472 36.8093 23.5472H30.1961Z" fill="white"/>
<circle cx="40" cy="36" r="29.5" stroke="white"/>
</g>
<defs>
<filter id="filter0_d_699_5752" x="0" y="0" width="80" height="80" filterUnits="userSpaceOnUse" color-interpolation-filters="sRGB">
<feFlood flood-opacity="0" result="BackgroundImageFix"/>
<feColorMatrix in="SourceAlpha" type="matrix" values="0 0 0 0 0 0 0 0 0 0 0 0 0 0 0 0 0 0 127 0" result="hardAlpha"/>
<feOffset dy="4"/>
<feGaussianBlur stdDeviation="5"/>
<feComposite in2="hardAlpha" operator="out"/>
<feColorMatrix type="matrix" values="0 0 0 0 0 0 0 0 0 0 0 0 0 0 0 0 0 0 1 0"/>
<feBlend mode="normal" in2="BackgroundImageFix" result="effect1_dropShadow_699_5752"/>
<feBlend mode="normal" in="SourceGraphic" in2="effect1_dropShadow_699_5752" result="shape"/>
</filter>
</defs>
</svg>
