<svg width="17" height="17" viewBox="0 0 17 17" fill="none" xmlns="http://www.w3.org/2000/svg">
<path d="M3.46376 9.87328C3.33095 10.192 3.40532 10.5559 3.64704 10.8003L7.89704 15.0503C8.22907 15.3823 8.76829 15.3823 9.10032 15.0503L13.3503 10.8003C13.5947 10.5559 13.6664 10.192 13.5336 9.87328C13.4008 9.55453 13.0927 9.35 12.75 9.35H4.25001C3.90735 9.35 3.59657 9.55718 3.46376 9.87593V9.87328Z" fill="white"/>
<path d="M4.25009 9.85027H12.7501C12.8908 9.8503 13.0171 9.93288 13.0724 10.0651C13.1273 10.197 13.098 10.346 12.9972 10.4469L8.74716 14.6969C8.6105 14.8336 8.38787 14.8334 8.25107 14.6969L4.00107 10.4469H4.00009C3.89979 10.3439 3.87135 10.1952 3.92392 10.0671L3.9249 10.068C3.98043 9.9348 4.11019 9.85027 4.25009 9.85027ZM8.25107 2.30046C8.3878 2.16373 8.61038 2.16381 8.74716 2.30046L12.9972 6.55046C13.0981 6.65391 13.1258 6.80275 13.0724 6.93132C13.0169 7.06451 12.888 7.14999 12.7481 7.15007H4.24814C4.11752 7.15007 4.00002 7.07785 3.93857 6.96159L3.92587 6.93132C3.87108 6.79948 3.90023 6.65133 4.00107 6.55046L8.25107 2.30046Z" stroke="white"/>
</svg>
