<svg width="39" height="37" viewBox="0 0 39 37" fill="none" xmlns="http://www.w3.org/2000/svg">
<g filter="url(#filter0_d_1155_4651)">
<path d="M18.1431 1.69097C18.4424 0.769655 19.7458 0.769656 20.0452 1.69097L22.6863 9.81964C22.8202 10.2317 23.2042 10.5106 23.6374 10.5106L32.1844 10.5106C33.1531 10.5106 33.5559 11.7502 32.7722 12.3196L25.8575 17.3434C25.507 17.5981 25.3604 18.0495 25.4942 18.4615L28.1354 26.5902C28.4348 27.5115 27.3803 28.2776 26.5966 27.7082L19.6819 22.6844C19.3314 22.4297 18.8568 22.4297 18.5063 22.6844L11.5917 27.7082C10.808 28.2776 9.75347 27.5115 10.0528 26.5902L12.694 18.4615C12.8279 18.0495 12.6812 17.5981 12.3307 17.3434L5.41605 12.3196C4.63234 11.7502 5.03511 10.5106 6.00384 10.5106L14.5508 10.5106C14.9841 10.5106 15.368 10.2317 15.5019 9.81964L18.1431 1.69097Z" fill="#FFB564"/>
<path d="M17.6674 1.53638C18.1164 0.154439 20.0718 0.154442 20.5209 1.53638L23.1615 9.66528C23.2284 9.87118 23.4206 10.0109 23.6371 10.011H32.184C33.637 10.011 34.2414 11.8698 33.0658 12.7239L26.1517 17.7483C25.9765 17.8756 25.9032 18.1009 25.9701 18.3069L28.6107 26.4358C29.0596 27.8176 27.4786 28.9663 26.3031 28.1125L19.3881 23.0891C19.2128 22.9618 18.9754 22.9618 18.8002 23.0891L11.8851 28.1125C10.7096 28.9664 9.12859 27.8176 9.57751 26.4358L12.2181 18.3069C12.2851 18.1009 12.2117 17.8756 12.0365 17.7483L5.12244 12.7239C3.94687 11.8698 4.55119 10.011 6.00427 10.011H14.5511C14.7676 10.0109 14.9598 9.87118 15.0267 9.66528L17.6674 1.53638Z" stroke="white"/>
</g>
<defs>
<filter id="filter0_d_1155_4651" x="0" y="0" width="38.1882" height="36.9082" filterUnits="userSpaceOnUse" color-interpolation-filters="sRGB">
<feFlood flood-opacity="0" result="BackgroundImageFix"/>
<feColorMatrix in="SourceAlpha" type="matrix" values="0 0 0 0 0 0 0 0 0 0 0 0 0 0 0 0 0 0 127 0" result="hardAlpha"/>
<feOffset dy="4"/>
<feGaussianBlur stdDeviation="2"/>
<feComposite in2="hardAlpha" operator="out"/>
<feColorMatrix type="matrix" values="0 0 0 0 0 0 0 0 0 0 0 0 0 0 0 0 0 0 0.25 0"/>
<feBlend mode="normal" in2="BackgroundImageFix" result="effect1_dropShadow_1155_4651"/>
<feBlend mode="normal" in="SourceGraphic" in2="effect1_dropShadow_1155_4651" result="shape"/>
</filter>
</defs>
</svg>
