<svg width="40" height="38" viewBox="0 0 40 38" fill="none" xmlns="http://www.w3.org/2000/svg">
<g filter="url(#filter0_d_1017_1154)">
<path d="M18.5732 1.77246C19.0223 0.390523 20.9777 0.390526 21.4268 1.77246L24.0674 9.90137C24.1343 10.1073 24.3265 10.2469 24.543 10.2471H33.0898C34.5429 10.2471 35.1472 12.1059 33.9717 12.96L27.0576 17.9844C26.8824 18.1117 26.809 18.337 26.876 18.543L29.5166 26.6719C29.9655 28.0537 28.3845 29.2024 27.209 28.3486L20.2939 23.3252C20.1187 23.1979 19.8813 23.1979 19.7061 23.3252L12.791 28.3486C11.6155 29.2024 10.0345 28.0537 10.4834 26.6719L13.124 18.543C13.191 18.337 13.1176 18.1117 12.9424 17.9844L6.02832 12.96C4.85275 12.1059 5.45707 10.2471 6.91016 10.2471H15.457C15.6735 10.2469 15.8657 10.1073 15.9326 9.90137L18.5732 1.77246Z" stroke="white" shape-rendering="crispEdges"/>
</g>
<defs>
<filter id="filter0_d_1017_1154" x="0.906006" y="0.236084" width="38.188" height="36.9083" filterUnits="userSpaceOnUse" color-interpolation-filters="sRGB">
<feFlood flood-opacity="0" result="BackgroundImageFix"/>
<feColorMatrix in="SourceAlpha" type="matrix" values="0 0 0 0 0 0 0 0 0 0 0 0 0 0 0 0 0 0 127 0" result="hardAlpha"/>
<feOffset dy="4"/>
<feGaussianBlur stdDeviation="2"/>
<feComposite in2="hardAlpha" operator="out"/>
<feColorMatrix type="matrix" values="0 0 0 0 0 0 0 0 0 0 0 0 0 0 0 0 0 0 0.25 0"/>
<feBlend mode="normal" in2="BackgroundImageFix" result="effect1_dropShadow_1017_1154"/>
<feBlend mode="normal" in="SourceGraphic" in2="effect1_dropShadow_1017_1154" result="shape"/>
</filter>
</defs>
</svg>
