<svg width="21" height="21" viewBox="0 0 21 21" fill="none" xmlns="http://www.w3.org/2000/svg">
<path d="M4.19995 5.24998C4.19995 3.51091 5.61089 2.09998 7.34995 2.09998H13.65C15.389 2.09998 16.8 3.51091 16.8 5.24998V13.65C16.8 14.9658 15.9928 16.0945 14.8476 16.5637L16.6162 18.6539C16.8984 18.9853 16.8557 19.484 16.5243 19.7629C16.1929 20.0418 15.6942 20.0025 15.4153 19.6711L12.9871 16.8H8.02261L5.59448 19.6711C5.31229 20.0025 4.81683 20.0451 4.48542 19.7629C4.15401 19.4808 4.11136 18.9853 4.39354 18.6539L6.16214 16.5637C5.00714 16.0945 4.19995 14.9658 4.19995 13.65V5.24998ZM6.29995 6.29997V9.44997C6.29995 10.0308 6.76917 10.5 7.34995 10.5H13.65C14.2307 10.5 14.7 10.0308 14.7 9.44997V6.29997C14.7 5.71919 14.2307 5.24998 13.65 5.24998H7.34995C6.76917 5.24998 6.29995 5.71919 6.29995 6.29997ZM10.5 14.7C11.0807 14.7 11.55 14.2308 11.55 13.65C11.55 13.0692 11.0807 12.6 10.5 12.6C9.91917 12.6 9.44995 13.0692 9.44995 13.65C9.44995 14.2308 9.91917 14.7 10.5 14.7Z" fill="white"/>
</svg>
